<svg width="16" height="16" viewBox="0 0 16 16" fill="none" xmlns="http://www.w3.org/2000/svg">
<path d="M5.20004 1.33334H10.8C12.9334 1.33334 14.6667 3.06668 14.6667 5.20001V10.8C14.6667 11.8255 14.2593 12.809 13.5342 13.5342C12.809 14.2593 11.8255 14.6667 10.8 14.6667H5.20004C3.06671 14.6667 1.33337 12.9333 1.33337 10.8V5.20001C1.33337 4.17451 1.74075 3.191 2.46589 2.46586C3.19104 1.74072 4.17454 1.33334 5.20004 1.33334ZM5.06671 2.66668C4.43019 2.66668 3.81974 2.91953 3.36965 3.36962C2.91956 3.81971 2.66671 4.43016 2.66671 5.06668V10.9333C2.66671 12.26 3.74004 13.3333 5.06671 13.3333H10.9334C11.5699 13.3333 12.1803 13.0805 12.6304 12.6304C13.0805 12.1803 13.3334 11.5699 13.3334 10.9333V5.06668C13.3334 3.74001 12.26 2.66668 10.9334 2.66668H5.06671ZM11.5 3.66668C11.7211 3.66668 11.933 3.75447 12.0893 3.91075C12.2456 4.06703 12.3334 4.279 12.3334 4.50001C12.3334 4.72102 12.2456 4.93299 12.0893 5.08927C11.933 5.24555 11.7211 5.33334 11.5 5.33334C11.279 5.33334 11.0671 5.24555 10.9108 5.08927C10.7545 4.93299 10.6667 4.72102 10.6667 4.50001C10.6667 4.279 10.7545 4.06703 10.9108 3.91075C11.0671 3.75447 11.279 3.66668 11.5 3.66668ZM8.00004 4.66668C8.8841 4.66668 9.73194 5.01787 10.3571 5.64299C10.9822 6.26811 11.3334 7.11595 11.3334 8.00001C11.3334 8.88406 10.9822 9.73191 10.3571 10.357C9.73194 10.9822 8.8841 11.3333 8.00004 11.3333C7.11599 11.3333 6.26814 10.9822 5.64302 10.357C5.0179 9.73191 4.66671 8.88406 4.66671 8.00001C4.66671 7.11595 5.0179 6.26811 5.64302 5.64299C6.26814 5.01787 7.11599 4.66668 8.00004 4.66668ZM8.00004 6.00001C7.46961 6.00001 6.9609 6.21072 6.58583 6.5858C6.21075 6.96087 6.00004 7.46958 6.00004 8.00001C6.00004 8.53044 6.21075 9.03915 6.58583 9.41422C6.9609 9.7893 7.46961 10 8.00004 10C8.53047 10 9.03918 9.7893 9.41425 9.41422C9.78933 9.03915 10 8.53044 10 8.00001C10 7.46958 9.78933 6.96087 9.41425 6.5858C9.03918 6.21072 8.53047 6.00001 8.00004 6.00001Z" fill="white"/>
</svg>
